<svg width="30" height="30" viewBox="0 0 30 30" fill="none" xmlns="http://www.w3.org/2000/svg">
<g clip-path="url(#clip0_299_430)">
<path d="M15 0.26001C6.71512 0.26001 0 6.93631 0 15.1733C0 23.4103 6.71512 30.0866 15 30.0866C23.2849 30.0866 30 23.4103 30 15.1733C30 6.93631 23.2849 0.26001 15 0.26001ZM10.4302 22.9941H6.77616V11.3149H10.4302V22.9941ZM8.59884 9.71088C7.43023 9.71088 6.47965 8.76579 6.47965 7.60394C6.47965 6.44209 7.43023 5.497 8.59884 5.497C9.76744 5.497 10.718 6.44209 10.718 7.60394C10.718 8.76579 9.76744 9.71088 8.59884 9.71088ZM24.0959 22.9941H20.4506V17.3149C20.4506 15.9623 20.4244 14.2195 18.5494 14.2195C16.6483 14.2195 16.3605 15.6935 16.3605 17.2195V23.0028H12.7151V11.3149H16.2209V12.9103H16.2645C16.9797 11.6964 18.3052 10.9681 19.718 11.0201C23.4157 11.0201 24.0959 13.4392 24.0959 16.5866V22.9941Z" fill="#BCBCBC"/>
</g>
<defs>
<clipPath id="clip0_299_430">
<rect width="30" height="30" fill="white"/>
</clipPath>
</defs>
</svg>
