<svg width="260" height="48" viewBox="0 0 260 48" fill="none" xmlns="http://www.w3.org/2000/svg">
<path d="M253.501 1.99219H194.501H136.529V22.1663V45.8874H138.354C139.57 45.8875 142.612 45.8874 145.045 45.8874L148.694 45.8874V22.7745V4.99219H201.001H227.501H253.501C256.501 9.49219 259.501 5.49219 259.501 3.49219C259.501 -0.0078125 256.001 -1.50781 253.501 1.99219Z" fill="url(#paint0_linear_299_283)"/>
<path d="M95.7765 2.09449C95.7765 2.34732 98.5768 8.49953 102.125 15.2417L108.546 27.3776H103.9H99.2527L96.5491 22.9952L93.8455 18.6128L91.0573 23.4166C89.621 26.1134 86.495 32.0128 84.2138 36.648L82.2593 40.2042L80.5 42.9922H43.5H6.5C6.5 42.029 5.5 40.9922 3.86567 40.9922C1.5 40.9922 0 42.3853 0 44.4922C0 46.5991 2 47.9922 3.86567 47.9922C5.73133 47.9922 6.5 46.9922 6.5 45.9922L52 45.9922H96.5491L99.2527 42.126L101.534 38.3336H107.701H113.869L115.897 42.126L117.925 45.9185H125.359H132.879L126.711 34.2883C123.416 27.9675 118.178 18.1071 115.136 12.4606L109.645 2.09449H102.717C98.8302 2.09449 95.7765 2.09449 95.7765 2.09449Z" fill="url(#paint1_linear_299_283)"/>
<path d="M7.5 7.02629C7.5 7.02629 7.5 9.96739 7.5 11.578V14.9918H14.3276H20.0172V26.616V32.6297V39.9922H24.569H29.1207V32.6297V26.616V14.9918H34.8103H41.6379V11.009V7.02629H24.569C15.5133 6.94959 8.06897 7.02629 7.5 7.02629Z" fill="white"/>
<path d="M212.5 8.02745C212.5 8.02745 212.5 11.0704 212.5 12.7368V16.2689H219.564H225.451V28.2957V34.5177V40.9922L230.195 40.9922L234.87 40.9922V34.5177V28.2957V16.2689H240.756H247.82V12.1482V8.02745H230.16C220.791 7.9481 213.089 8.02745 212.5 8.02745Z" fill="#FFFEFE"/>
<path d="M45.5 6.99219C45.5 7.56115 45.5 16.2702 45.5 24.6301V39.9922L50.6207 39.9922C55.1724 39.9922 49.7831 39.9922 54.6035 39.9922V33.1646H59.7242H65.4138L69.3966 39.9922H71.1035H72.8104C76.59 39.9922 79.069 39.9922 79.069 39.9922C77.92 38.4536 73.7953 32.0267 73.3793 31.4577C73.6751 30.8887 73.8863 30.5318 75.6552 28.6129C79.3265 24.6301 78.5 26.337 78.5 20.3503V14.9577L74.5793 10.406L69.2521 6.99219H59.1552C53.51 6.99219 46.069 6.99219 45.5 6.99219ZM69.6861 17.2336C70.5345 20.3503 70.5345 20.6474 69.3966 22.9232C67.8859 24.4572 66.7458 24.0612 60.8621 24.0612H54.6035L54.6035 20.3503L54.6035 16.0734H60.8621C67.1433 16.0734 68.1755 15.3929 69.6861 17.2336Z" fill="white"/>
<path d="M154.5 7.99218C154.5 8.56363 154.5 16.4402 154.5 26.916V41.135H157.357H163.643V29.135V17.135H167.024C172.738 17.3126 173.164 16.5942 175.141 18.597C177.198 20.6767 177.357 21.135 177.357 31.0539V41.135H180.786L186.5 41.135V30.2779V18.2779L180.786 12.5636L175.643 7.99218H165.357C158.319 7.99218 155.455 7.99218 154.5 7.99218Z" fill="#FFFEFE"/>
<path d="M199.5 7.99219C199.5 8.58147 199.5 16.8315 199.5 25.0815L199.5 40.9922H205.393H208.929V24.4922V7.99219H205.982C204.433 7.99219 200.089 7.99219 199.5 7.99219Z" fill="#FFFEFE"/>
<defs>
<linearGradient id="paint0_linear_299_283" x1="197.845" y1="46.8525" x2="197.845" y2="-4.00782" gradientUnits="userSpaceOnUse">
<stop stop-color="#B16CC2"/>
<stop offset="1" stop-color="#6CD7E6"/>
</linearGradient>
<linearGradient id="paint1_linear_299_283" x1="67.1895" y1="48.3204" x2="67.1895" y2="2.09447" gradientUnits="userSpaceOnUse">
<stop stop-color="#B16CC2"/>
<stop offset="1" stop-color="#6CD7E6"/>
</linearGradient>
</defs>
</svg>
